<svg version="1.1" xmlns="http://www.w3.org/2000/svg" xmlns:xlink="http://www.w3.org/1999/xlink" style="" xml:space="preserve" width="122.88" height="57.38"><rect id="backgroundrect" width="100%" height="100%" x="0" y="0" fill="none" stroke="none"/><style type="text/css">.st0{fill-rule:evenodd;clip-rule:evenodd;}</style><g class="currentLayer" style=""><title>Layer 1</title><g id="svg_1" class="selected" fill="#ffffff" fill-opacity="1"><path class="st0" d="M70.67,57.38c-3.79-4.59-5.63-9.11-5.82-13.56c-0.39-9.32,5.14-16.28,13.35-21.29 c8.64-5.27,17.52-6.58,26.15-10.51c4.31-1.96,9.46-5.17,18.02-12.01c2.79,7.41-6.11,19.32-20.56,25.62c4.48,0.17,9.3-1.2,14.57-4.6 c-0.36,9.42-7.77,15.22-24.24,17.46c3.46,1.16,7.6,1.22,12.88-0.27C99.95,55.18,78.96,43.02,70.67,57.38L70.67,57.38z M52.21,57.38 c3.79-4.59,5.63-9.11,5.82-13.56c0.39-9.32-5.14-16.28-13.35-21.29c-8.64-5.27-17.52-6.58-26.15-10.51 C14.22,10.05,9.07,6.84,0.51,0c-2.79,7.41,6.11,19.32,20.56,25.62c-4.48,0.17-9.3-1.2-14.57-4.6c0.36,9.42,7.77,15.22,24.24,17.46 c-3.46,1.16-7.6,1.22-12.88-0.27C22.93,55.18,43.92,43.02,52.21,57.38L52.21,57.38z" id="svg_2" fill="#ffffff" fill-opacity="1"/></g></g></svg>